<svg version="1.2" xmlns="http://www.w3.org/2000/svg" viewBox="0 0 350 347" width="350" height="347">
	<title>5886535-ai</title>
	<defs>
		<clipPath clipPathUnits="userSpaceOnUse" id="cp1">
			<path d="m283.04 166.63l-59.86 52.11c-6.91 6.01-16.41 8.07-25.19 5.46l-103.74-30.87c-5.06-1.5-8.92-5.6-10.11-10.73l-15.61-66.98c-3.73-16.01 9.43-30.91 25.78-29.2l58.7 6.17c15.16 1.59 30.48-0.62 44.57-6.43l39.06-16.13c13.2-5.44 28.2 1.82 32.11 15.56l18.79 66.03c1.52 5.45-0.23 11.29-4.5 15.01z"/>
		</clipPath>
	</defs>
	<style>
		.s0 { fill: #5254d1 } 
		.s1 { fill: #ae95ed } 
		.s2 { fill: #ffffff } 
		.s3 { fill: none;stroke: #f1db46;stroke-linecap: round;stroke-miterlimit:10;stroke-width: 10 } 
		.s4 { fill: none;stroke: #2925ac;stroke-miterlimit:10;stroke-width: 2 } 
		.s5 { fill: #f1db46 } 
		.s6 { fill: #40ddcd } 
		.s7 { fill: #fe8cb7 } 
	</style>
	<g id="OBJECTS">
		<g id="&lt;Group&gt;">
			<g id="&lt;Group&gt;">
				<g id="&lt;Group&gt;">
					<g id="&lt;Group&gt;">
						<path id="&lt;Path&gt;" class="s0" d="m138.1 172.8c-32.5 0-65.3-10.8-87.1-30.3-17.9-16-25.5-36.2-21.3-56.7 5.1-24.7 17.6-42.7 36.2-52 20.1-10.2 46.2-9.2 71.7 2.6 37.6 17.4 35.9 59.3 35.9 59.7l-6.6-0.4 3.3 0.2-3.3-0.2c0.1-1.5 1.4-37.8-32.1-53.3-23.6-10.9-47.7-11.9-65.9-2.7-16.7 8.4-28 24.8-32.6 47.4-4.8 23.2 7.8 40.3 19.2 50.5 29.1 26 81.6 35.7 122.1 22.5l2 6.3c-13.1 4.3-27.3 6.4-41.5 6.4z"/>
					</g>
				</g>
				<g id="&lt;Group&gt;">
					<path id="&lt;Path&gt;" class="s0" d="m95.1 179.1l-23.9-79.3-11.2 20.4c-2.1 4.7-2.7 10-1.7 15l12 60.6c1.6 7.7 7 14 14.4 16.6l100 35.4c10 3.5 21 0.9 28.3-6.7l71.6-76z"/>
				</g>
				<g id="&lt;Clip Group&gt;">
					<g id="&lt;Group&gt;" style="opacity: .3">
						<g id="&lt;Group&gt;">
							<g id="&lt;Group&gt;">
								<path id="&lt;Path&gt;" class="s1" d="m66.9 80c0.4-0.5 0.8-0.3 1.2-0.5 0.1 0.6 0.3 1.2-0.4 1.6z"/>
								<path id="&lt;Path&gt;" class="s1" d="m70.8 129.9c1 1.3 0 2.1 0.7 3.3 0.5 1.2 1.2 0.5 1.8 0.8 3.4 6.7 8.2 12.3 13.4 16.2-0.7 0.3-0.3 0.8 0 1.2-1.2 0.8-2.3 1-3.4 0.8-5.4-5.3-9.3-11-15-15.8 3.3-1.7-0.4-4.7 2.5-6.5z"/>
								<path id="&lt;Path&gt;" class="s1" d="m113.3 195.8c-0.2 0.8 0.6 1.7-0.3 2.3q-0.7-1.3 0.3-2.3z"/>
								<path id="&lt;Path&gt;" class="s1" d="m180.2 155.7c1.2 0.8 3 3.1 2.3 4.3 2 0.8 4 1.6 5.8 4.1-0.4 0.6-0.6 1.2-1.2 1.7-4-1.3-11.9-5.6-6.9-10.1z"/>
								<path id="&lt;Path&gt;" class="s1" d="m164.4 247.1c-0.6-1.3 1.4 0.5 0.8-0.5 0.7-0.3 1.2 1.4 0.4 1.7-0.4-0.3-0.7-1.6-1.2-1.2z"/>
								<path id="&lt;Path&gt;" class="s1" d="m199.4 302.1c0.2-1.1 0.6-1.5 1.5-0.1-0.2 1.2-0.6 1.6-1.5 0.1z"/>
								<path id="&lt;Path&gt;" class="s1" d="m265.3 257.2c2.3-0.3 0.8-1.9 2.8-1.3q0.4-0.6 0.9-1.2c0.2-0.1 0.4-0.3 0.6-0.5l0.9-0.7c1.2-1 2.5-2 3.8-2.9 2.7-1.8 5.4-3.6 7.5-5.4 2.1-1.9 3.2-4 5.1-5.9 3.8-3.7 8.2-7.3 12.7-10.8 4.6-3.4 9.2-6.9 13.6-10.2 5-3.8 9.6-7.7 15.6-10.9 2.1 1.4-0.2 4-3.8 6.7-3.6 2.7-8.3 5.4-11.6 7.7-0.8 0.9-1.2 1.8-1.2 2.5-8.7 5.8-14.3 11.4-20.4 16.9-6 5.3-12.5 10.6-20.5 13.9-0.2 0.3-0.5 0.6-0.6 0.8q-0.2 0.3-0.5 0.5-0.4 0.5-1 0.9c-0.6 0.5-1.3 1.1-1.9 2-0.3 0.1-0.7 0.1-0.9-0.1-0.7-0.1-0.9-1.3-1.1-2z"/>
								<path id="&lt;Path&gt;" class="s1" d="m305.2 215.4c0.6-0.9 2.6-2.8 4.9-2.5 0-1.1 3.3-2 4.6-3.4q2.4-1.1 4.7-2.4c-2.9-3.8-7.8-8.3-12.9-13-5.2-4.7-10.6-9.5-15.4-14.8 1-1 2.3 0.1 3.5 0.4 2.2 2.4 4.9 4.1 7.7 5.9 2.7 1.8 5.4 3.7 7.1 6 4.2 2.3 7.2 5.1 9.4 7.9 2.3 2.7 3.8 5.4 5.8 7.7q-1.1 0.6-2 1.2c-4.8 1.7-10.1 4.9-13.7 7.9-0.9 0.2-3-0.5-3.7-0.9z"/>
								<path id="&lt;Path&gt;" class="s1" d="m292.9 189.2l-1.1 0.3c-3.6-1.9-4.9-4.6-8.3-6.4 1.8-0.2 3.7 1 5.6 1.3 1.6 1.9 3.8 3.1 3.8 4.8z"/>
								<path id="&lt;Path&gt;" class="s1" d="m291 178c-1.4 0.9-4.3-2.2-4.8-3.1 2.3 0.6 2.7 2.2 4.8 3.1z"/>
								<path id="&lt;Path&gt;" class="s1" d="m232.6 127.6c-1.1 0.6-4.5 1.3-4.4-1.1-4-0.4-6.4-3.6-10.3-5.6 1.1-0.8-0.7-2.1-1.5-2.1-0.5 1 1.6 0.2 0.4 1.2-2.5-1.3-4.3-3.5-6.3-4 0.2-0.5 0.6-0.2 0.8-0.5 0.2-0.4-0.3-0.6-0.5-0.9 0.5-0.5 2.6 1.5 1.1 1.3 0.4 0.4 0.8 0.1 1.2 0.6-0.7-1.2 1.5-1.1-0.3-2.3 0.4-0.3 0.9 0.5 1.2 0.1 0.3 0.6-0.2 1.3-0.2 1.9 1.2 0.2 4 3.2 4.1 1.4 1.8 0.1 2 4.6 4.3 3.9 2.9 3.1 6 2.9 10.4 6.1z"/>
								<path id="&lt;Path&gt;" class="s1" d="m209.4 115.1c-0.4-0.6-0.4-1.6 0.5-1.7 0.6 0.6 0.1 1.1-0.5 1.7z"/>
								<path id="&lt;Path&gt;" class="s1" d="m207 114.4c-0.9-0.6-0.2-1.3-0.7-1.9 0.9-0.3 1.3 1.3 0.7 1.9z"/>
								<path id="&lt;Path&gt;" class="s1" d="m204.8 109.6c-0.9 0.8-1.5-1.3-2.8-1.5 0.8-0.7 1.8 0.9 2.8 1.5z"/>
								<path id="&lt;Path&gt;" class="s1" d="m200.4 106.8c-0.8 0.1-1.5 0.5-2.4-0.3q1.2-0.5 2.4 0.3z"/>
								<path id="&lt;Path&gt;" class="s1" d="m180.7 73.8q-1-1.3-0.3-2.8c0 0.9 1 1.8 0.3 2.8z"/>
								<path id="&lt;Compound Path&gt;" fill-rule="evenodd" class="s1" d="m192.8 159.1c-5.3-0.5-4.7-7.6-8.7-10.1 0.9-0.6 0-1 0.3-1.5-3.3-2.4-4.7-5.1-7.3-7.7-4.5-4.2-10.5-5.2-14.9-8.5-7.5-5.6-13.9-11.4-19.9-16.4-1.1-1-2.8-1.2-2.7-3.1 11.5 2.6 22.2 19.2 32.7 21.6-0.1-1.8-1.7-3.1-3.6-4.2-3.7-9.7-1.3-19.8-1.8-29.6-2.4-2.5-2.5-1.3-5.4-3.2-2.9-0.4-6.5 2.6-8.8 0.6-6.3 3.4-13.3-1-20.4-5.1-3.5-2-5-2.4-8.2-5.5-1.5-1.4-1.5-3.2-2.4-4.5-0.1-0.2-1-0.2-1.3-0.7-0.6-1.1-0.9-2.8-1.4-4.3 0 0.8 0.4 1.6 0.3 2.4-3.1 3-3.2 6.5-5.4 10.2 3 10.5 12.4 17.1 19.6 24.3-0.5 1.4 1.6 1.8 1 3 4.7 4 9.5 10.4 10.6 15.8 0.7 0.6 1.3 1 2 1.1 0.6 0.9 0.1 1.7 0.4 2.6 1.9 2.3 2.7 4.4 3.8 6.5-0.5 3.6 2.6 8.6 4.3 11.9 3.9 3 7.3 9.8 12 10.6 4.5 7.5 10.2 9 15.1 12 1 3.4 5.6 5 6.6 7.4 0.2 0.3 0.6-0.1 1-0.3 3.1 3.1 5 6.7 7.8 9.8 1.2 3 1.8 6.4 2.8 9.3 1.2 3.7 3.2 6.7 5.3 9.5q1.6 2.1 3.2 4.1 0.7 1 1.4 2.1l0.7 1c0.2 0.3 0.2 0.3 0.2 0.4l0.1 0.2c1.7-0.4 0.7 1.5 1 3 0.3 1.9 1.9 2.2 1.6 4.5 1 0 2 0.3 2.8 0.8 0.8 0.6 1.5 1.5 1.7 3.2 0.6-0.4 0.7 0.6 1.2-0.5q0.1 0.1 0.3 0.2c2.1-1.9 4.5-3.8 6.8-5.6 3.7-3 7.4-6 10.5-8.6q0.8-0.7 1.5-1.4l0.6-0.8 0.3-0.4c0.1-0.1 0.1-0.1 0.1-0.2 0.2-0.4 0.4-0.7 1-0.6-0.7-2.7-0.4-4 1.4-4.3-0.2-0.7-0.3-1.3-1.2-2 1.6 0.2 0.6-0.4 0.9-0.6 1-0.7 5-1 9.3-2q0.5-0.4 0.7-0.9c-0.4-0.1 0.6-0.1 1.3-0.2-0.3-0.8-0.7-1.9-1.6-3-0.9-1-2.3-2.1-4.1-2.6-1.9-0.5-4.4-0.2-5.9-0.2l-0.5-0.4c-1.3 0.1-2.5 0.3-3.5 0.6l-0.4 0.1-0.9-0.4-2-0.9q-1.9-1-3.8-2c-4.9-2.8-9.3-6.2-12.7-10.8-1.4-2-4.1-2.7-5.1-5.1-6-2.7-10.6-9.1-14.8-13.9-3-0.7-4.8-3.4-6.6-5.9-0.1-0.9 0.5-0.4 1.1-0.8zm-73.5-83.1c0.9-0.5 0.7-1.2 1.2-1.7-0.2-1.4-0.5-3.2-1.1-4.9-1.1-1.3-2.3-2.5-3.9-3.5-0.1-0.5 0.1-1.1-0.4-1.6-0.7 0.4-1.2 0-1.7-0.7-0.9 0.2-1.9 0.3-2.8 0.5 0.7 2.4 2.4 5 4.6 6.5-0.4 2.1 1.7 2.5 2.8 4 0.4 0.7 0.7 1.5 1 2.3q0-0.5 0.3-0.9zm0.1-6.6c5 6 5.8 14.4 13.4 19.2 4.6 2.9 8.7 4.7 13.8 6.8 1.2-0.6 3.3-1.7 5.3-0.6 4.8-0.8 11.5-2.2 17.5 0.1 3.2 5 2.7 10.2 2.7 15.3 1.2 4.8 1.6 9.7 2.5 14.6 8.2 8.5 18.5 10.7 27.5 14 0.2 0.5 0.5 0.9 1.1 1.3 3.2-0.8 5.3 1.9 8.6 2.5 1 0.5-0.4 1.1 0.4 1.6 6.1 0.2 10.6 7.8 15.9 9.4 3.9 5.7 11.5 8.9 14.2 13.8 2.3 2.1 4.7 4.3 7 6.4q1.8 1.6 3.5 3.1 1.6 1.4 3.2 2.7c2.5 2.2 6.6 2.6 9.6 4.6 0.8 0.5 1.9 2.3 2.7 3.1 0.6 0.5 1.9 0.9 2.2 1.4 1.5 2.6-4 4.8-1.4 7.2 0.3 0.7 1.7 0 2.4 0.3 0.7 1.3 3.3 2.9 1.4 3.7 2.9 2.1 6.9 4.1 10 6.3-1.2 1.1-2.9 2.2-5.2 3.3-1.8 2.3-5.9 4.8-9.2 7.1-3.4 2.3-6 4.6-6.7 8.1-2.4 1.5-1.7 3.3-4.4 4.9 2.9 0.4 6 0.1 9.3-0.5 3.4-3.2 8.1-4.4 13.3-6.1 5.2-1.6 11-3.7 14.8-7.4l1.3 0.2c0.8-1.5 4.7-2 6.6-3.3 3.1-2.2 1.7-4.2 1.7-5.7q0.1 0 0.2-0.1c0.5-0.3 0.7-0.7 1-1.1 1.4 0.3 2.7 0.7 3.9 1.2 0 1-1.2 2.4-1.6 3.4-0.5 1.2-0.4 2.5-4.9 4.9-2.6 1.4-6.1 2.1-8.3 3.4-1.9 1.1-3.1 3.1-5.3 3.2-0.6 0.5-0.8 1.1-1.1 1.6-1.8 0.9-3.6 0.7-5.2 2.4-3.8-0.1-6.8 1-9.5 2.6-2.6 1.6-5 3.7-7.3 5.1-0.7 0.9-1.2-0.4-1.9-0.2-2.9 3-6.2 5.4-9.2 7.5-3 2.2-5.9 4.1-8.8 6.9-1.9 1.8-3.5 3.8-5.5 5.8-1.9 2-4.2 4-7 5.6-0.9 0.9-1-0.2-1.5-0.5-1.2 2.5-3.8 4.5-5.5 7 0.4 1.5 2.7 0.7 2.2 2.8-1.1-0.1-1.6-1.3-2.4-1.8-4.5 2.5-8.6 7.4-13.4 12.5-1.2-0.9-2.4-2-3.6-3.4-0.5 2.4 1 4.3 0.9 6.7-0.2-1-1-1.9-1.7-2.8-0.3 1.9 0.2 3.7 0.8 5.5 0.8 0.6-0.1-2.1 0.7-1.8 0.9 1.4 1.4 3 1.6 4.6q0.1 0.6-0.1 1.9c1.6-0.9 2.8-2.3 3.1-0.3 5-2.9 9.1-6.3 13-9.2 3.9-3 7.5-5.5 12.1-7.3 4.4-3.2 10.7-7.4 15-9.2 1.1-1.2 2.7-2.5 4.5-3.7 1.2-0.8 2.7-1.5 4.1-2-0.2 1.8-2.1 1.3-3.1 1.9-0.4 0.2-0.6 0.3-1 0.6l-1.3 0.9q-1.2 0.9-2.5 1.9-2.6 1.9-5.1 3.8c-3.4 2.5-6.8 5.1-10.2 7.1-3.5 2.2-6.1 3.1-10.9 7-0.8 0.7-1.1 1.5-1.9 2.3-2.7 2.6-5.5 4.5-8.4 6.3-2.8 1.8-5.7 3.6-8.5 6.1q-0.7-0.7-1.4-1.4c-0.1 2 0.2 3.9 0.7 5.8 0.3 0.2 0.8 0.3 1.3 0.2 8.3-6 12.3-9.9 17.4-13.8-0.9 4.9-4.1 7.3-8.6 11.7-1.6 0.8-3.2 1.8-3.9 1.3q-3.6 2.9-7 5.8c-4.7-5.9-9.4-11.7-13.9-18.2-4.5-6.5-8.9-13.6-12.6-21.4 0.5 0.5 0.2-0.2-0.2-0.7 1.3 1.2 3 2.9 4.4 4.3-0.5 0.1-1-0.3-1.7-1.1-0.2 2.7 2.8 2.6 2.1 5.1 1.1 1 0.7 0 1.1-0.8 0.7 1.6 0.4 2.9 2.3 4.9 0.8 0.7 1.4 0.3 2 0-1-1.8-1.6-1.2-2.6-3.1 0.3-1.3-0.2-2.8-0.3-4.2-0.4-0.3-0.7 0.2-1.3-0.7-1.3-1.7 0.3-0.4 0.6-0.9-1.1-2.7-2.9-6.6-4.9-5.6-0.6-3.7-4.1-11.3-8.2-11.3q-0.2-1.2-1-2.4c-0.4-0.8-1.2-1.9-1.5-2.3-1-1.2-2.3-2.4-3.5-3.6-2.4-2.5-4.7-5.1-4.2-8-2.6-2.4-3.9-4.4-4.9-7.3-8.8-8-19.4-20.8-24.7-31.4-2.2-1.1-4.4-2.9-6.3-6-3.6-2.7-7.8-1.3-11.6-2.8-0.5 0.6-0.2 1.4-0.1 2.1-1.6 0-0.6-2.8-2-2.8-1.6 1.5 1.8 3.8 1 6.4 2.3 3.2 2.4 5.8 4.6 8.5 1 1.3 3 1.4 4.1 2.4 1.6 1.5 1.3 3.6 3.2 4.4 0.1 0.6-1.1 1.1-0.7 1.8 3.5 1.4 5.2 6.3 8.8 9.4 3.9 3.3 8.3 5.4 12 7.3 0.6 0.5 0.4 0.8 0.6 1.2 1.8 0.7 2.3 1.5 3.9 2.7-1.1 0.3-0.6 0.4-1.6 1.1 0-0.4 0.4-0.7-0.1-1.2-0.5-0.8-1.2-0.2-1.8-0.3-0.1-3.2-4.9-3.3-6.4-5.5-3.4 0.1-5.9-1.2-8.4-3.5-2.2-1.9-2.8-4.9-4.5-7.2-2.3-3.3-5.8-6.5-7.7-9.5-0.3-0.4-0.8 0.4-1.1 0-4.4-2.8-4.8-8.3-6.6-12.9-1.1-2.8-5.1-4.6-3.8-8.5-7.2-5.3-13.1-13.8-14-21.6-1.7-2.2-3.2-4.4-3.4-6.4-5.3-3.9-4.3-9-9.6-13.1-0.8 0-1.7 0-2.6 0.7-1.3-2-1.6-3.8-1.2-5.5-3-1.4-5-5.3-7.7-6.2 0.2-1.2-1.9-3.3-3.2-3.9-0.7 0.6-0.4 1.8-1.6 1.6-0.4-1.1 1.2-1.8 1.5-2.8-1.5-0.7-3.3-2.8-1.8-4.1-5-5.6-4.9-12.8-10-20-0.5-3.3-1.6-6.7 0.6-9.6-0.6-1.1-1.3-1.7-0.6-2.9 2.2 0.5 1.9-0.9 4-1.7 0.9 0.6 0.8 0.9 0.9 1.9 3.4 0.2 6.8-3.6 11-3 2 2 4.3 0.9 6.1 4 1.1-1-0.5-2.5-1.1-3.8 0.6-0.5 0.4-1.1 1.3-0.9-0.5-3.5 1.3-6 1.6-8.8 3-2.9 5.4-2.9 8.5-3.6 6.1 5.7 10-2.3 15.7-5.9 0.7-2.5 2.4-3.6 4.4-4.2q-0.2-0.8-0.2-1.6c1.5-1.3 2.3 0.1 3 1.1q0.6-0.1 1.2-0.1c2.3 0.7 3.8 3.2 4.8 5.9zm-33.2 15.9c-0.2-0.8-0.3-1.7-0.1-2.4 0.6-0.3 1 0.8 1.5 0.5-0.2-0.3-0.6-0.7-0.3-1 0.2 0.3 0.7 0 0.5-0.4-1.7-0.5-3.8 2.5-1.6 3.3zm1.8 14.6c-1.5-0.3-1.7 2-1.3 3 0.3 1.1 3.4 4.6 5.8 2.5-2.3-0.8-2.8-5.2-4.5-5.5zm16.7 18c1.3-2.5-1.9-5.5-1.8-7.9-0.5 0-0.9 0.1-1.5 0.7 2 3.1 1.7 4.4 3.3 7.2zm0 6.7c0.6-0.7 0.1-1.6 0.3-2.3-0.5 0.4-0.8-0.5-1.4 0.2 0.8 0.8 0.2 1.3 1.1 2.1zm3.9-2.4c2.5 1.3 3.6 5.5 5 8.6 3.6 0.8 6.8 5 10.4 6.6-1.1-3-5.3-4.4-7.7-7.3-2.8-3.5-4.4-7.6-5.8-11.3-1.6 0.9-0.9 2.3-1.9 3.4zm-0.9 6.5c1.4-1.1-0.5-2.9-1.6-3.8l-0.8 0.5c0.7 1.7 0.8 2.4 2.4 3.3zm0.7 0.4q-0.7 0.5-1.3 0.5c0.5 1.4 2.3 0.6 1.3-0.5zm-3.7 18.5c3.1 4.5 4.1 8.5 6.8 12.2 6.6 3.5 8 9.9 13.7 15.7 3.6-3.3 5.1 1 8.1-0.4-6.1-13.9-13.8-22.8-23.3-31.7-0.6-0.1-1.4 0.8-1.9 0.1-1.5-2.4-3.5-1.9-4.4-3.9-0.6-1.1 0-2.5-0.5-3.9-0.2-0.7-1.7-1.1-1.1-2.1-3.6 4.7-0.6 9.4 2.6 14zm-7.1 5.6c-0.7 2.2 1.9 3.7 2.9 6.3 0.5 1.4 0.2 3.5 0.8 4.8 2.7 6.6 5.9 8.2 11.1 8.3 0.7 2.3 4 1.6 4.7 3.7 0.7-3.5-5.5-8-7-11.3-0.4-1.5-0.3-2.9-1.7-4.6-0.2-0.7 0.8-1.2 0-2.1-3.8-0.2-6.7-7-10.8-5.1zm29.4-13.3c-1.2-0.9-1-1.7-2.2-1.8 0.5 0.7 0.9 2.6 2.2 1.8zm28.5 38.3c3.1 13.9 13 24.1 21.1 36.3 3 0.9 7.3 2.8 9.8 2-3.1-1.1-4.2-4.2-5.6-7.2-3-0.4-3.6-3.4-5.6-5.6-1.8-1.9-3.4-2.1-4.5-3.4-3.7-4.5-3.5-7.7-5.7-11.8-2.5-4.3-6-7.2-8.7-10.8zm41.3 54.3c1.1 0.9 1 2.7 1.1 4.6 0.2 1.9 0.5 3.8 1.8 4.3-0.3-0.4-0.7-0.8-0.1-1.2 1 2.2 1.6 4.5 3.5 5.3 1 4.1 6 10.1 8.2 9.2 0.5-2.3 0.1-3.9-1-5.2-0.6 0.3-1.3 2.1-2 2.2-0.3-3.3 1.9-2.4 2.5-4.3-1.6 0.4-2.5-3.7-4.1-3.5 0.8-2.8-1.4-2.7-2.3-4.3-0.7-1.1-0.7-2.6-1.2-3.3-1.3-1.4-3.7-2.1-4.5-5-0.4 0.3-0.5-0.5-0.9-0.2 0.2 0.5-1.1 0.9-1 1.4zm14.7 24.1q0.8 0.8 1.4-0.8c-0.2-0.8-0.3-1.7-0.5-2.4-0.6 0.8-1.2 1.7-0.9 3.2zm12.1-18.2c-0.4 3.5-0.4 6.7-0.9 11.2 1.4-1.8 2.6-2.4 3.8-2.8 1.2-0.3 2.4-0.4 3.4-1 1.5-0.9 1.8-3.4 3.5-3 0.8-1.7 1.2-4.1 1.4-6.3 0.2-2.2 0.4-4.2 1.2-5.4q0.4-0.6 0.9-0.9c0.1-0.1 0.5-0.3 0.7-0.5q0.5-0.3 0.9-0.5c1.2-0.6 2.5-1 3.7-1.3 2.5-0.5 5.1-0.3 7.3-0.1 2.1-1.7 3.1-4.7 6.4-5.6 0.1-1.9 1.4-3.2 3.1-4.4 1.7-1.2 3.9-2.4 4.9-3.7 3.5-0.5 3.8-2.4 5.7-3.8 1.8-1.4 5-2.8 7.2-4.3q-0.5-0.5-1.1-1c-1-0.7-3-1.4-4.1-2.1-2.4-1.6-2-2-2.7-3.1-1-1.5-3.3-2.7-5.1-4.1-4.8 0.9-7.9 0.3-10.9 0.2 3.4 1.8 5 3.5 8.4 5.2-0.9 0.7 0.7 1.3 0.4 2-0.1 0.2-1.3 0.4-1.3 0.6 0 0.3 1.2 0.7 1.2 1 0.1 0.4-0.3 0.7-0.8 1-1.2 0.2-2.5 0.5-3.3 0.7-1 0.4-1 0.8-1.9 1.1-1.1 0.3-3.6 0.3-4.5 0.6-2.1 0.5-2.7 1.1-3.3 1.9-0.6 0.7-1.1 1.6-2.4 2-0.2 0.7-0.2 1.6-0.5 2.5-0.3 0.9-0.9 1.7-1.9 2.1 0.2 0.5 0.2 1 0.1 1.4q-0.1 0.3-0.3 0.5c0 0-0.3 0.2-0.4 0.4l-0.6 0.4c-1.6 1.2-3.5 2.1-4.8 2.6q-0.8 1-1.7 2l-1 1c-0.3 0.3-0.8 0.7-0.8 0.8-0.5 0.6-1.2 1.1-1.9 1.6-1.3 1.1-2.6 1.9-3.7 3.1-1.5 1.6-3.2 3.8-5.1 5.4 0 1.9 0.6 1.5 0.8 2.6zm27.1-46.1c-0.4-0.4-1.4-0.4-1.9-0.7-0.7-0.4-0.8-1.4-1.4-2q-0.5-0.6-1.1-1.1l-2.4-2q-2.3-2-4.6-4c-3.1-2.6-5.9-5.2-7.9-7.8-0.6-0.8-0.9-2.2-1.6-3-0.2-0.2-1.5-0.4-1.7-0.6-1.5-1.3-2.3-3.8-3.7-5.1-0.5-0.5-1.6-0.5-2.2-1-2.3-1.7-4.2-5.7-7.1-8-1.3-1.1-2.4-2-3.6-3-3.1-2.4-5-2.2-7.5-3.2-2-0.8-3.8-2.4-5.8-3.1-2.2-0.9-6-1-8.1-3.4-3.3 0.4-5.9-3.6-9.4-4.1 4.8 7.7 11.5 7.4 18.3 11.4 2.1 3.7 6.5 6.5 7.7 9.8 3.1 1.1 5.8 5.8 8.3 8.5 3.8 0.3 5.1 4.6 7.9 7 2.5 2.1 5.9 3.8 8.5 6.2 2.5 2.1 4.8 4.7 7.4 7 0.5 0.9 0.6 2 1.1 2.9q0.8 0.6 1.5 1c0.4 0.2 0.5 0.2 0.8 0.3q0.7 0.1 1.4 0.3c0.9 0.2 2 0.4 2.9 1 1.2-0.2 3.8-0.6 3.2 0.5 1-0.5 1.6-0.6 2.3-1-1.7-0.2-0.5-1.9-1.3-2.8zm-59.9-35.7c0.2 0.9 0.4 0.3 1.1 0.9 1-0.8-0.5-2-1.1-0.9z"/>
								<path id="&lt;Path&gt;" class="s1" d="m159 238c-0.6-0.4-1.2-0.4-1.8-0.8 0-1.8-3.8-3.2-3-5.3 3.1 3.7 5.2 6.6 7.8 10.3-1.5 0.1-3.5-3.7-3-4.2z"/>
								<path id="&lt;Path&gt;" class="s1" d="m163.2 245.5c-0.7-1.1-1.5-0.5-2.2-1.4 1.1-0.2 2.1 1 3.2 0.6 0.5 0.8-0.7 0-1 0.8z"/>
								<path id="&lt;Path&gt;" class="s1" d="m212.8 113.7c-2.3 0.2-5.1-3.2-7.5-3.7 2.8 0 4.9 2.8 7.5 3.7z"/>
							</g>
						</g>
					</g>
					<g id="&lt;Group&gt;" clip-path="url(#cp1)">
						<path id="&lt;Path&gt;" class="s2" d="m283 166.6l-59.8 52.1c-6.9 6-16.4 8.1-25.2 5.5l-103.8-30.9c-5-1.5-8.9-5.6-10.1-10.7l-15.6-67c-3.7-16 9.5-30.9 25.8-29.2l58.7 6.2c15.2 1.6 30.5-0.6 44.6-6.4l39-16.2c13.2-5.4 28.2 1.9 32.1 15.6l18.8 66c1.6 5.5-0.2 11.3-4.5 15z"/>
					</g>
				</g>
				<g id="&lt;Group&gt;">
					<path id="&lt;Path&gt;" class="s0" d="m182 175.9c2.5-13.5-6.4-26.4-19.8-28.8-13.5-2.5-26.4 6.4-28.8 19.8-2.5 13.5 6.4 26.4 19.8 28.9 13.5 2.4 26.4-6.5 28.8-19.9z"/>
				</g>
				<g id="&lt;Group&gt;">
					<path id="&lt;Path&gt;" class="s2" d="m176.2 169.2l-0.9-3.5c-0.3-1.3-1.5-2.1-2.9-1.9l-9.7 1.3-2.2-9.6c-0.3-1.3-1.6-2.2-2.9-2l-5 0.5c-1.6 0.2-2.7 1.7-2.3 3.2l2.2 9.3-9.5 1.2c-1.6 0.2-2.6 1.7-2.2 3.3l0.8 3.4c0.3 1.3 1.6 2.1 2.9 2l10-1.4 2.4 10.6c0.3 1.3 1.6 2.2 2.9 2l5-0.5c1.6-0.2 2.7-1.7 2.3-3.2l-2.4-10.3 9.3-1.2c1.5-0.2 2.5-1.7 2.2-3.2z"/>
				</g>
				<g id="&lt;Group&gt;">
					<g id="&lt;Group&gt;">
						<path id="&lt;Path&gt;" class="s0" d="m92.4 133.9c-1.1 8.4 7.1 16.3 18.2 17.7 11.1 1.3 20.9-4.4 21.9-12.8 1-8.4-7.1-16.3-18.2-17.7-11.1-1.3-20.9 4.4-21.9 12.8z"/>
					</g>
					<g id="&lt;Group&gt;">
						<path id="&lt;Path&gt;" class="s3" d="m120.8 105.9l-8.5 32"/>
					</g>
					<g id="&lt;Group&gt;">
						<path id="&lt;Path&gt;" class="s0" d="m96.8 110.1c-1.9 7.6 6.4 16.2 18.5 19.2 12.2 3 23.5-0.7 25.4-8.3 1.9-7.6-6.4-16.2-18.5-19.2-12.1-3-23.5 0.7-25.4 8.3z"/>
					</g>
					<path id="&lt;Path&gt;" class="s0" d="m97.2 107.3c-1.9 7.6 6.4 16.2 18.5 19.2 12.1 3 23.5-0.7 25.4-8.3 1.9-7.6-6.4-16.2-18.5-19.2-12.2-3.1-23.5 0.7-25.4 8.3z"/>
					<g id="&lt;Group&gt;">
						<path id="&lt;Path&gt;" class="s4" d="m135.7 114.5c-1.3 5-9.3 7.3-18 5.2-8.6-2.2-14.6-8-13.3-13 1.2-5.1 9.3-7.4 17.9-5.3 8.6 2.2 14.6 8 13.4 13.1z"/>
					</g>
				</g>
				<g id="&lt;Group&gt;">
					<path id="&lt;Path&gt;" class="s0" d="m224.2 187.9c-3.1 0-6.3-0.4-9.4-1.4-16.3-5.2-25.4-22.6-20.2-38.9l13.9-44.2c5.2-16.3 22.6-25.4 38.9-20.2 16.4 5.1 25.4 22.5 20.3 38.9l-14 44.2c-4.2 13.2-16.4 21.6-29.5 21.6z"/>
				</g>
				<g id="&lt;Group&gt;">
					<path id="&lt;Path&gt;" class="s5" d="m224.2 100.5c-0.7 5.5 3.3 10.6 8.8 11.2 5.6 0.7 10.6-3.2 11.3-8.8 0.7-5.5-3.3-10.6-8.8-11.2-5.5-0.7-10.6 3.2-11.3 8.8z"/>
				</g>
				<g id="&lt;Group&gt;">
					<path id="&lt;Path&gt;" class="s6" d="m214.1 126.5c-0.7 5.5 3.3 10.6 8.8 11.3 5.6 0.7 10.6-3.3 11.3-8.8 0.7-5.6-3.3-10.6-8.8-11.3-5.6-0.7-10.6 3.3-11.3 8.8z"/>
				</g>
				<g id="&lt;Group&gt;">
					<path id="&lt;Path&gt;" class="s7" d="m204 155.5c-0.7 5.6 3.3 10.6 8.8 11.3 5.5 0.7 10.6-3.2 11.3-8.8 0.7-5.5-3.3-10.6-8.8-11.3-5.6-0.6-10.6 3.3-11.3 8.8z"/>
				</g>
				<g id="&lt;Group&gt;">
					<path id="&lt;Path&gt;" class="s2" d="m237.2 172.5q-0.6 0-1.2-0.3c-2.1-0.7-3.3-2.9-2.6-5l3.4-10.1c0.7-2.1 3-3.3 5.1-2.6 2.1 0.7 3.2 3 2.5 5.1l-3.4 10.1c-0.5 1.7-2.1 2.8-3.8 2.8z"/>
				</g>
				<g id="&lt;Group&gt;">
					<path id="&lt;Path&gt;" class="s2" d="m246.5 148q-0.6 0-1.2-0.2c-2.1-0.7-3.3-3-2.6-5.1l3.4-10.1c0.7-2.1 3-3.2 5.1-2.5 2.1 0.7 3.2 3 2.5 5.1l-3.4 10.1c-0.5 1.7-2.1 2.7-3.8 2.7z"/>
				</g>
			</g>
			<path id="Gaming" class="s2" aria-label="Gaming"  d="m126.4 227.2q0.4 2.4-2.1 6.3-2.5 3.8-6.5 7.6-3.9 3.8-8 6.3 0.9-0.5 1.9-0.7 3.5-0.6 4.8 0.5 0.4 0.3 0.4 0.6 0.1 0.4-0.9 2.1-10.7 17.3-19.2 34.1 3.9-4.3 6.8-8 1.6-2.1 4.4-2.5 2-0.3 2.6 0.1 0.5 0.4 0.6 0.8 0 0.3-0.5 0.9-6.7 8.1-22.2 24.1-2.5 3.9-12.7 18.8-1.9 2.6-4.5 3-5.2 0.9-5.7-2-0.2-1.3 1.4-4.4 2.2-4.7 12-15.2 2.1-3.1 7.1-10.7 9.4-14.4 11.2-18.4-5.3 7.1-8.2 10.1-2.9 3-5.4 5.3-2.4 2.3-4.6 3.8-10.4 7.3-16.1 2.7-2.9-2.3-3.7-7.4-0.9-5.2 0.9-11.9 1.9-6.7 5.7-13.5 3.7-6.9 9.4-13.7 5.6-6.8 11.9-12.3 6.4-5.5 13.8-9.4 7.3-4 14.3-5.1 2.3-0.4 4.6 0.1 2.2 0.4 3.2 1.2 2.5 1.7 3.3 6.8zm-25.4 14.2l-0.1 1q0.1 0.8 1.2 0.6 2.9-0.5 7.4-4 4.5-3.6 7-7 2.6-3.4 2.3-5.3-0.3-1.7-3.2-1.2-5.1 0.9-11.2 4.4-6 3.6-11.4 8.6-5.5 5.1-10.6 11.3-5.1 6.1-8.7 12.1-3.5 5.9-5.4 11.4-1.9 5.4-1.3 9 0.2 1.4 1.2 2.3 1 0.9 2.6 0.7 4.9-0.8 14.6-10.1 9.7-9.3 21.7-24.7 0.2-0.2 0.6-0.8 0.8-1.4 1.8-2.1-3.6 2.1-6 2.5-2.5 0.4-4.2-0.4-1.8-0.8-2.1-2.6-0.3-1.9 1.1-3.8 1.3-1.9 2-2 0.6-0.1 0.7 0.1zm48.5 5.2q3.6-0.5 4 1.9 0.2 1.3-0.3 2-0.5 0.7-2 4.5-1.4 3.7-2.9 9.5-1.5 5.7-1.6 9.6-0.1 0.5 0 1.4 0.5 2.5 1.9 2.3 1.4-0.2 3.1-1.8 1.7-1.7 2.9-3.4 1.3-1.8 2.4-3.7 1.2-1.8 1.4-2.1 0.3-0.2 0.9-0.3 0.8-0.2 1.3 1.1 0.4 1.4 0.6 2.8 0.2 1.5 0 2.1-0.9 2.9-4.9 7.4-4 4.5-7.8 5.1-3.7 0.6-5.9-1.4-2.1-2-2.6-4.8-0.4-2.8 0.2-5-3.1 5.6-7.6 10-4.4 4.3-7.6 4.8-3.2 0.5-5.5-1-2.9-2-3.6-6.2-0.7-4.3 0.5-8.8 1.2-4.7 3.7-8.7 2.5-4 5.7-7.5 6.8-7.4 13.3-8.5 2.6-0.4 4.3 0.2 1.7 0.6 2.3 1.8 0.9-1.9 1.6-2.4 0.7-0.6 2.2-0.9zm-5.3 6.2q-8 1.3-15.2 11.6-2.5 3.7-4.3 8.6-1.8 4.8-1.6 6.5 0.3 1.6 1.3 1.5 1.3-0.3 6.4-6.4 5.1-6.2 6.7-8.9 1.7-3.1 6.7-12.9zm14.5 29.1l-2.3 0.3-0.8 0.1q-0.5 0-1.2-0.4-0.5-0.3-0.9-0.4-0.3-0.2-0.3-0.6-0.1-0.6 0-1.8 5.9-21.6 12.4-35 0.8-1.5 2.7-2.5 2-1 4-1.3 1.1-0.2 1.4 1.6 0.1 0.5-0.1 1.5-0.2 0.9-1.4 3.1-1.2 2.2-2.8 5.1-1.7 2.8-1.9 3.2 5.3-7.6 9.9-11.7 4.7-4.1 7-4.5 2.3-0.4 3.8 0.8 1.4 1.1 1.7 2.6 0.2 1.5 0.2 2.6-0.1 1-0.4 2.2-0.4 1.2-0.7 2-0.3 0.8-1 2.3-0.7 1.3-1 1.9-0.3 0.5-1.2 2-0.9 1.5-0.9 1.6 1.1-1.5 3-4.5 1.9-2.9 3.2-4.9 1.4-2 3.5-4.6 2-2.6 3.9-4.3 4.5-4 9.7-4.8 1.8-0.3 3.2 0.6 1.4 0.9 1.7 2.5 0.2 1.6-2.6 8.1-2.8 6.6-5.6 13.2-2.8 6.5-2.6 8.1 0.4 2.1 1.3 2.4 0.8 0.2 1.9 0 1.1-0.3 2.9-2 1.9-1.7 3.2-3.4 2.2-2.8 4-5.3 0.4-0.5 1-0.6 0.9-0.1 1.3 1.2 0.4 1.3 0.6 2.8 0.3 1.4 0.1 2-0.9 2.9-4.9 7.4-4.1 4.5-8.3 5.2-0.5 0.1-0.8 0.1-4.9 0.3-7.1-1.5-2.2-1.9-2.7-4.9-0.5-3 0.9-7.6 1.3-4.6 3.2-8.4 1.9-3.9 3.4-7 1.6-3.1 1.6-3.4-0.1-0.2-0.4-0.1-1.5 0.2-5.7 5.7-7.3 9.4-12.3 17.8-1.3 2.3-6.1 11.3-0.6 1-2.1 1.3-1.5 0.2-3.2-0.1-1.8-0.3-1.9-1.2-0.1-0.5 5.3-14.4 5.3-13.8 5.2-15-0.2-1.1-1.6-0.9-1.4 0.2-5 5-10 13.3-14.7 25.5-0.3 0.7-1.3 2.4-1 1.6-1.4 1.6zm80.3-66.1q0.4 2.7-1.6 5.8-2 3-4.8 3.5-2.6 0.4-3.1-2.4-0.4-2.8 1.5-5.7 2-3 4.8-3.4 1.3-0.2 2.1 0.3 0.9 0.6 1.1 1.9zm-0.9 42.1q0.2 1.4 0 2-1.5 5.1-6 8.8-4.6 3.7-8.2 4.3-3.7 0.6-6.8-1.5-3.1-2-3.5-4.6-0.4-2.6 1.3-7.9 1.8-5.3 3.7-9.9 1.9-4.6 1.8-4.9 0-0.4-1.2-1.3-1.1-0.8-1.1-1.3-0.1-0.5 1.5-2.9 1.6-2.4 4-4.9 2.5-2.5 3.9-2.7 1.5-0.3 2.9 0.8 1.4 1.2 1.6 2.2 0.1 1.1-7.9 22.1-0.1 0.3-0.5 1.4-0.5 1-0.8 1.7-0.2 0.7-0.5 1.7-0.7 2-0.4 3.3 0.2 1.5 2.4 1.2 2.1-0.4 4.2-2.2 2.1-1.9 3.5-3.9 3.6-5.5 4.2-5.6 1.2-0.2 1.9 4.1zm21.5-0.1q0.3 2 3.1 1.6 1.5-0.3 3.5-2.2 2.1-1.8 3.6-3.9 4.1-5.6 4.8-5.7 1.2-0.2 1.7 3.3 0.6 3.5-1.4 5.2-5.7 7.1-9.1 9-2 1-4.4 1.4-2.5 0.4-5.3-1.4-2.8-1.7-3.3-4.7-0.5-3 0.5-7.1 1-4.1 2.2-7.1 1.2-3 3-7 1.9-4 1.9-5h-0.1q-1.6 0.4-6.7 7.3-5.1 6.9-8.4 12-3.2 5-7.6 13.3-1.2 2.2-2.2 2.4-0.9 0.2-2.7-0.2-1.8-0.4-2.2-0.6-0.4-0.2-0.5-0.8-0.1-0.5 0.1-1.4 0.2-0.9 0.4-1.4 0.2-0.6 0.7-1.9 0.6-1.2 2-5.2 1.5-4 4.7-11.9 3.1-7.9 3.7-9.5 1.3-3.4 2.2-5 1.6-3 6.6-3.8 1.2-0.2 1.4 1.2 0.3 2.2-2.7 9l-1.5 3.2q6.6-10.3 11.8-13.6 2.5-1.6 4.7-1.9 2.2-0.4 3.6 0.6 1.5 0.9 1.7 2.4 0.3 1.4-0.4 3.6-0.6 2.1-1.4 3.8-0.7 1.8-2 4.4-1.2 2.7-1.3 2.9-0.1 0.2-0.6 1.3-0.4 0.9-0.6 1.4-0.2 0.5-0.7 1.7-0.5 1.1-0.8 1.9-0.3 0.7-0.7 1.9-0.4 1.1-0.7 1.9-0.2 0.8-0.4 1.7-0.4 1.8-0.2 2.9zm23.7-28.4q4-3.9 8.1-6.3 4-2.4 7.2-2.9 3.2-0.5 4.4 1.2 1.5-2.4 4.1-3 0.8-0.2 2-0.4 1.2-0.2 1.5 0.1 0.3 0.2 0.7 1 0.4 0.9 0.4 0.9 0.1 0.1 0.1 0.4 0.1 0.1-0.1 0.5-0.2 0.3-0.5 0.7-0.2 0.3-0.3 0.3-7.9 16.6-15.6 37.3 9.5-11.7 17.6-17.4 0.6-0.4 1.1-0.5 0.7-0.1 1.1 0.9 0.4 0.9 0.7 2.6 0.3 1.8 0.1 2.3-0.1 0.4-1.9 2-1.7 1.6-4.5 4.1-2.8 2.5-5.9 5.5-7.5 7.3-11.9 14.6-5.6 9.6-7.8 15.3-0.8 2.2-3.5 2.6-5.3 0.9-6.1-4.1-0.8-5.1 3.3-11.3 3.1-4.5 5.8-7.6 2.8-3 3-3.4 2.6-5.7 7-16.3-4.2 6.1-8.5 10.1-4.2 3.9-6.5 4.3-7.2 1.1-8.2-5-0.8-4.9 0.9-10.2 1.7-5.4 4.9-9.9 3.3-4.6 7.3-8.4zm17.6-4.1q-5.3 2-9.6 5.5-4.3 3.5-6.9 7.1-2.6 3.5-4.3 7.1-3.2 6.7-2.7 10 0.1 0.8 0.5 0.8 0.4-0.1 1.6-1.2 1.3-1 3.5-3.5 2.2-2.4 4.8-5.7 6.1-7.8 13.1-20.1z"/>
		</g>
	</g>
</svg>